<svg width="125" height="50" viewBox="0 0 125 50" fill="none" xmlns="http://www.w3.org/2000/svg">
<path d="M5.89211 42C5.67878 42 5.49211 41.9267 5.33211 41.78C5.18544 41.62 5.11211 41.4333 5.11211 41.22V27.16C5.11211 26.9333 5.18544 26.7467 5.33211 26.6C5.49211 26.4533 5.67878 26.38 5.89211 26.38C6.21211 26.38 6.44544 26.5133 6.59211 26.78L13.3321 40.18H12.6521L19.2721 26.78C19.4321 26.5133 19.6654 26.38 19.9721 26.38C20.1854 26.38 20.3654 26.4533 20.5121 26.6C20.6588 26.7467 20.7321 26.9333 20.7321 27.16V41.22C20.7321 41.4333 20.6588 41.62 20.5121 41.78C20.3654 41.9267 20.1854 42 19.9721 42C19.7454 42 19.5521 41.9267 19.3921 41.78C19.2454 41.62 19.1721 41.4333 19.1721 41.22V29.18L19.5121 29.2L13.6121 41.26C13.4654 41.5133 13.2388 41.64 12.9321 41.64C12.5988 41.64 12.3588 41.48 12.2121 41.16L6.27211 29.28L6.67211 29.18V41.22C6.67211 41.4333 6.59211 41.62 6.43211 41.78C6.28544 41.9267 6.10544 42 5.89211 42ZM31.221 42.1C30.1544 42.1 29.201 41.86 28.361 41.38C27.521 40.9 26.861 40.24 26.381 39.4C25.901 38.56 25.661 37.6067 25.661 36.54C25.661 35.46 25.901 34.5 26.381 33.66C26.861 32.82 27.521 32.16 28.361 31.68C29.201 31.2 30.1544 30.96 31.221 30.96C32.2877 30.96 33.2344 31.2 34.061 31.68C34.901 32.16 35.561 32.82 36.041 33.66C36.521 34.5 36.7677 35.46 36.781 36.54C36.781 37.6067 36.5344 38.56 36.041 39.4C35.561 40.24 34.901 40.9 34.061 41.38C33.2344 41.86 32.2877 42.1 31.221 42.1ZM31.221 40.7C31.9944 40.7 32.6877 40.52 33.301 40.16C33.9144 39.8 34.3944 39.3067 34.741 38.68C35.0877 38.0533 35.261 37.34 35.261 36.54C35.261 35.74 35.0877 35.0267 34.741 34.4C34.3944 33.76 33.9144 33.26 33.301 32.9C32.6877 32.54 31.9944 32.36 31.221 32.36C30.4477 32.36 29.7544 32.54 29.141 32.9C28.5277 33.26 28.041 33.76 27.681 34.4C27.3344 35.0267 27.161 35.74 27.161 36.54C27.161 37.34 27.3344 38.0533 27.681 38.68C28.041 39.3067 28.5277 39.8 29.141 40.16C29.7544 40.52 30.4477 40.7 31.221 40.7ZM46.2362 42.12C45.2895 42.12 44.4428 41.9267 43.6962 41.54C42.9495 41.14 42.3562 40.56 41.9162 39.8C41.4895 39.04 41.2762 38.1133 41.2762 37.02V31.82C41.2762 31.6067 41.3495 31.4267 41.4962 31.28C41.6428 31.1333 41.8228 31.06 42.0362 31.06C42.2628 31.06 42.4495 31.1333 42.5962 31.28C42.7428 31.4267 42.8162 31.6067 42.8162 31.82V37.02C42.8162 37.8467 42.9695 38.5267 43.2762 39.06C43.5962 39.5933 44.0228 39.9933 44.5562 40.26C45.1028 40.5267 45.7162 40.66 46.3962 40.66C47.0495 40.66 47.6362 40.5333 48.1562 40.28C48.6895 40.0267 49.1095 39.68 49.4162 39.24C49.7228 38.8 49.8762 38.3 49.8762 37.74H50.9762C50.9362 38.58 50.7028 39.3333 50.2762 40C49.8628 40.6533 49.3028 41.1733 48.5962 41.56C47.8895 41.9333 47.1028 42.12 46.2362 42.12ZM50.6362 42C50.4095 42 50.2228 41.9333 50.0762 41.8C49.9428 41.6533 49.8762 41.46 49.8762 41.22V31.82C49.8762 31.5933 49.9428 31.4133 50.0762 31.28C50.2228 31.1333 50.4095 31.06 50.6362 31.06C50.8628 31.06 51.0495 31.1333 51.1962 31.28C51.3428 31.4133 51.4162 31.5933 51.4162 31.82V41.22C51.4162 41.46 51.3428 41.6533 51.1962 41.8C51.0495 41.9333 50.8628 42 50.6362 42ZM46.4562 29.64C45.8028 29.64 45.2162 29.5333 44.6962 29.32C44.1762 29.0933 43.7628 28.7867 43.4562 28.4C43.1628 28.0133 43.0162 27.58 43.0162 27.1C43.0162 26.8867 43.0828 26.7067 43.2162 26.56C43.3628 26.4133 43.5362 26.34 43.7362 26.34C43.9495 26.34 44.1228 26.4133 44.2562 26.56C44.3895 26.7067 44.4562 26.9067 44.4562 27.16C44.4562 27.5333 44.6495 27.8333 45.0362 28.06C45.4228 28.2867 45.8962 28.4 46.4562 28.4C47.0295 28.4 47.5028 28.2867 47.8762 28.06C48.2628 27.8333 48.4562 27.5333 48.4562 27.16C48.4562 26.9067 48.5228 26.7067 48.6562 26.56C48.8028 26.4133 48.9762 26.34 49.1762 26.34C49.3895 26.34 49.5628 26.4133 49.6962 26.56C49.8295 26.7067 49.8962 26.8867 49.8962 27.1C49.8962 27.58 49.7428 28.0133 49.4362 28.4C49.1428 28.7867 48.7362 29.0933 48.2162 29.32C47.6962 29.5333 47.1095 29.64 46.4562 29.64ZM84.2894 42.1C83.2361 42.1 82.3028 41.86 81.4894 41.38C80.6761 40.9 80.0361 40.24 79.5694 39.4C79.1161 38.5467 78.8894 37.5733 78.8894 36.48H79.7094C79.7094 35.5333 79.9094 34.7 80.3094 33.98C80.7228 33.2467 81.2828 32.6733 81.9894 32.26C82.7094 31.8467 83.5294 31.64 84.4494 31.64C85.4494 31.64 86.3361 31.86 87.1094 32.3C87.8961 32.74 88.5094 33.3533 88.9494 34.14C89.3894 34.9267 89.6094 35.8267 89.6094 36.84C89.6094 37.8667 89.3828 38.78 88.9294 39.58C88.4761 40.3667 87.8494 40.9867 87.0494 41.44C86.2494 41.88 85.3294 42.1 84.2894 42.1ZM84.2894 40.7C85.0361 40.7 85.6961 40.54 86.2694 40.22C86.8428 39.8867 87.2894 39.4333 87.6094 38.86C87.9428 38.2733 88.1094 37.6 88.1094 36.84C88.1094 36.0933 87.9428 35.4333 87.6094 34.86C87.2894 34.2867 86.8428 33.84 86.2694 33.52C85.6961 33.2 85.0361 33.04 84.2894 33.04C83.5294 33.04 82.8561 33.2 82.2694 33.52C81.6828 33.84 81.2228 34.2867 80.8894 34.86C80.5694 35.4333 80.4094 36.0933 80.4094 36.84C80.4094 37.6 80.5694 38.2733 80.8894 38.86C81.2228 39.4333 81.6828 39.8867 82.2694 40.22C82.8561 40.54 83.5294 40.7 84.2894 40.7ZM78.8894 36.54V34.9C78.9028 33.1267 79.3761 31.54 80.3094 30.14C81.2428 28.7267 82.6961 27.64 84.6694 26.88L87.6094 25.72C87.8228 25.64 88.0094 25.6333 88.1694 25.7C88.3294 25.7667 88.4494 25.9 88.5294 26.1C88.5961 26.3133 88.5961 26.5 88.5294 26.66C88.4761 26.82 88.3228 26.9467 88.0694 27.04L84.9494 28.32C83.7761 28.7733 82.8294 29.3467 82.1094 30.04C81.4028 30.7333 80.8894 31.5133 80.5694 32.38C80.2494 33.2333 80.0894 34.14 80.0894 35.1L80.1094 36.54H78.8894ZM99.1321 42.1C98.1054 42.1 97.1854 41.86 96.3721 41.38C95.5588 40.8867 94.9121 40.22 94.4321 39.38C93.9654 38.54 93.7321 37.5933 93.7321 36.54C93.7321 35.4733 93.9721 34.52 94.4521 33.68C94.9454 32.84 95.6121 32.18 96.4521 31.7C97.2921 31.2067 98.2388 30.96 99.2921 30.96C100.345 30.96 101.285 31.2067 102.112 31.7C102.952 32.18 103.612 32.84 104.092 33.68C104.585 34.52 104.839 35.4733 104.852 36.54L104.232 37.02C104.232 37.98 104.005 38.8467 103.552 39.62C103.112 40.38 102.505 40.9867 101.732 41.44C100.972 41.88 100.105 42.1 99.1321 42.1ZM99.2921 40.7C100.065 40.7 100.752 40.52 101.352 40.16C101.965 39.8 102.445 39.3067 102.792 38.68C103.152 38.04 103.332 37.3267 103.332 36.54C103.332 35.74 103.152 35.0267 102.792 34.4C102.445 33.7733 101.965 33.28 101.352 32.92C100.752 32.5467 100.065 32.36 99.2921 32.36C98.5321 32.36 97.8454 32.5467 97.2321 32.92C96.6188 33.28 96.1321 33.7733 95.7721 34.4C95.4121 35.0267 95.2321 35.74 95.2321 36.54C95.2321 37.3267 95.4121 38.04 95.7721 38.68C96.1321 39.3067 96.6188 39.8 97.2321 40.16C97.8454 40.52 98.5321 40.7 99.2921 40.7ZM104.072 42C103.845 42 103.659 41.9333 103.512 41.8C103.365 41.6533 103.292 41.4667 103.292 41.24V37.82L103.672 36.24L104.852 36.54V41.24C104.852 41.4667 104.779 41.6533 104.632 41.8C104.485 41.9333 104.299 42 104.072 42ZM110.327 46.68C110.087 46.68 109.894 46.6067 109.747 46.46C109.614 46.3267 109.547 46.14 109.547 45.9V36.46C109.561 35.42 109.807 34.4867 110.287 33.66C110.781 32.82 111.441 32.16 112.267 31.68C113.107 31.2 114.047 30.96 115.087 30.96C116.154 30.96 117.107 31.2067 117.947 31.7C118.787 32.18 119.447 32.84 119.927 33.68C120.421 34.52 120.667 35.4733 120.667 36.54C120.667 37.5933 120.427 38.54 119.947 39.38C119.481 40.22 118.841 40.8867 118.027 41.38C117.214 41.86 116.294 42.1 115.267 42.1C114.374 42.1 113.561 41.9133 112.827 41.54C112.107 41.1533 111.527 40.6467 111.087 40.02V45.9C111.087 46.14 111.014 46.3267 110.867 46.46C110.734 46.6067 110.554 46.68 110.327 46.68ZM115.087 40.7C115.861 40.7 116.554 40.52 117.167 40.16C117.781 39.8 118.261 39.3067 118.607 38.68C118.967 38.04 119.147 37.3267 119.147 36.54C119.147 35.74 118.967 35.0267 118.607 34.4C118.261 33.7733 117.781 33.28 117.167 32.92C116.554 32.5467 115.861 32.36 115.087 32.36C114.327 32.36 113.641 32.5467 113.027 32.92C112.414 33.28 111.934 33.7733 111.587 34.4C111.241 35.0267 111.067 35.74 111.067 36.54C111.067 37.3267 111.241 38.04 111.587 38.68C111.934 39.3067 112.414 39.8 113.027 40.16C113.641 40.52 114.327 40.7 115.087 40.7Z" fill="#47BEB7"/>
<path d="M66.3378 25.7844L85.4451 5.80941C85.8658 5.36945 85.97 4.75843 85.7169 4.21477C85.4638 3.67112 84.9179 3.33338 84.2923 3.33338H78.3158L80.3989 1.24557C80.4705 1.1761 80.5269 1.0938 80.5647 1.00343C80.6025 0.913074 80.621 0.816469 80.6191 0.71925C80.6172 0.62203 80.5949 0.52614 80.5537 0.437168C80.5124 0.348195 80.4529 0.267919 80.3786 0.201017C80.3044 0.134115 80.2169 0.0819262 80.1212 0.0474907C80.0255 0.0130552 79.9235 -0.00293796 79.8213 0.000443166C79.719 0.00382429 79.6185 0.0265121 79.5255 0.0671845C79.4326 0.107857 79.3491 0.1657 79.2799 0.237345L76.1908 3.33348H42.7412C42.1156 3.33348 41.5697 3.67121 41.3166 4.21487C41.0635 4.75862 41.1677 5.36965 41.5885 5.80951L60.6957 25.7844C60.8981 25.9953 61.1261 26.1827 61.3749 26.3426V43.9432C61.3747 44.3971 61.2258 44.8397 60.949 45.2096C60.6722 45.5795 60.2812 45.8584 59.8301 46.0077L53.428 48.123C53.4124 48.1282 53.397 48.1337 53.3819 48.1398C52.9297 48.3209 52.6818 48.7666 52.7789 49.2237C52.8761 49.6807 53.2867 50 53.7774 50H73.256C73.7467 50 74.1574 49.6808 74.2546 49.2237C74.3518 48.7666 74.1038 48.3208 73.6516 48.1398C73.6364 48.1337 73.621 48.1281 73.6054 48.123L67.2034 46.0077C66.7523 45.8584 66.3613 45.5795 66.0845 45.2095C65.8077 44.8396 65.6588 44.3971 65.6586 43.9432V26.3427C65.9074 26.1828 66.1354 25.9954 66.3378 25.7844ZM76.8538 4.79885H84.2923C84.2973 4.79885 84.3001 4.79895 84.301 4.79904C84.3053 4.80395 84.3085 4.80968 84.3103 4.81584C84.3103 4.81584 84.3089 4.81857 84.3039 4.82375L79.5584 9.78479H75.7655C76.1122 8.72941 75.8914 7.50687 75.1332 6.52335L76.8538 4.79885ZM66.6969 47.3919L70.1555 48.5345H56.878L60.3365 47.3919C61.88 46.8819 62.9171 45.496 62.9171 43.9432V26.9249C62.9511 26.9301 62.9854 26.9337 63.0196 26.938C63.0377 26.9403 63.0558 26.9428 63.0739 26.9449C63.1271 26.9508 63.1804 26.9555 63.2338 26.9591C63.3277 26.9658 63.422 26.9704 63.5168 26.9704C63.6118 26.9704 63.7062 26.9658 63.8003 26.959L63.8362 26.9563C63.8776 26.953 63.9189 26.9494 63.9601 26.9448C63.9774 26.9429 63.9945 26.9404 64.0118 26.9382C64.0467 26.9338 64.0818 26.9301 64.1165 26.9249V43.943C64.1164 45.496 65.1534 46.8819 66.6969 47.3919ZM65.1967 24.7987C65.0147 24.9897 64.7982 25.1484 64.5574 25.267C64.5516 25.2696 64.5457 25.2713 64.54 25.2741C64.2225 25.4256 63.872 25.5046 63.5167 25.5046C63.1613 25.5046 62.8109 25.4256 62.4933 25.2741C62.4878 25.2714 62.4818 25.2697 62.4762 25.2671C62.2354 25.1484 62.0189 24.9898 61.8368 24.7988L48.8768 11.2502H51.7361C51.9405 11.2502 52.1367 11.173 52.2813 11.0356C52.4259 10.8982 52.5071 10.7118 52.5071 10.5175C52.5071 10.3232 52.4259 10.1368 52.2813 9.99939C52.1367 9.86198 51.9405 9.78479 51.7361 9.78479H47.475L42.7295 4.82375C42.7261 4.82023 42.7244 4.81789 42.7239 4.8175C42.7248 4.8112 42.7271 4.80515 42.7306 4.79973C42.7306 4.79973 42.7336 4.79885 42.7411 4.79885H74.7287L74.0147 5.51445C73.3848 5.12184 72.6645 4.89912 71.9273 4.87667C70.9066 4.84562 69.9739 5.1981 69.304 5.86975C68.634 6.54132 68.3129 7.44419 68.4 8.41198C68.4116 8.53787 68.4299 8.66311 68.455 8.78721C67.3426 8.64466 66.2197 8.9612 65.4372 9.74534C65.4244 9.75823 65.4127 9.77171 65.4 9.78479H55.324C55.1195 9.78479 54.9234 9.86198 54.7788 9.99939C54.6342 10.1368 54.5529 10.3232 54.5529 10.5175C54.5529 10.7118 54.6342 10.8982 54.7788 11.0356C54.9234 11.173 55.1195 11.2502 55.324 11.2502H64.605C64.5002 11.7068 64.4967 12.1868 64.5911 12.66C64.4593 12.6429 64.3267 12.6321 64.1938 12.6278C63.1722 12.5964 62.2405 12.9493 61.5704 13.6209C60.3772 14.8169 60.3672 16.7065 61.4485 18.1093L60.5961 18.9636C60.4585 19.1052 60.3851 19.2926 60.3918 19.4851C60.3986 19.6777 60.4848 19.8601 60.632 19.9926C60.7792 20.1252 60.9754 20.1974 61.1781 20.1935C61.3808 20.1896 61.5738 20.11 61.7152 19.9719L62.567 19.1181C63.1969 19.5107 63.917 19.7334 64.6545 19.7559C64.6962 19.7572 64.7376 19.7578 64.779 19.7578C65.7516 19.7578 66.6352 19.407 67.2779 18.7629C67.9479 18.0913 68.269 17.1885 68.1819 16.2207C68.1703 16.0949 68.152 15.9697 68.127 15.8456C68.2991 15.8677 68.4715 15.8794 68.6428 15.8794C69.5788 15.8794 70.4835 15.5501 71.1448 14.8872C71.9272 14.103 72.2 13.0205 71.9909 11.9726C72.1638 11.995 72.3382 12.0064 72.5127 12.0067C73.3575 12.0067 74.1348 11.7417 74.7456 11.2501H78.1569L65.1967 24.7987ZM66.5562 10.7536C66.9162 10.3928 67.4135 10.2151 67.9388 10.2151C68.5421 10.2151 69.1825 10.4495 69.6937 10.9102C70.6501 11.772 70.7989 13.1038 70.0254 13.8791C69.2518 14.6542 67.8448 14.584 66.8883 13.7228L66.8878 13.7224C65.9315 12.8606 65.7827 11.5288 66.5562 10.7536ZM66.1585 17.7548C65.7957 18.1184 65.2809 18.308 64.7038 18.2914C64.0943 18.2729 63.4967 18.0266 63.0211 17.5981C62.0646 16.7363 61.9158 15.4045 62.6894 14.6293C63.0369 14.281 63.5254 14.0915 64.0714 14.0915C64.0956 14.0915 64.1199 14.0918 64.1441 14.0925C64.7534 14.1111 65.3509 14.3572 65.8264 14.7855L65.8269 14.7859C66.3024 15.2144 66.593 15.7683 66.645 16.3457C66.6941 16.8907 66.5213 17.3911 66.1585 17.7548ZM69.9365 8.28701C69.8874 7.74208 70.0601 7.24168 70.423 6.87798C70.7705 6.52979 71.2588 6.34018 71.8049 6.34018C71.829 6.34018 71.8533 6.34057 71.8777 6.34125C72.4872 6.3599 73.0848 6.60605 73.5603 7.03459C74.5167 7.89625 74.6655 9.22815 73.892 10.0034C73.5292 10.367 73.0113 10.5566 72.4373 10.54C71.8279 10.5216 71.2303 10.2753 70.7547 9.84679C70.2791 9.41835 69.9886 8.86435 69.9365 8.28701Z" fill="white"/>
</svg>
